<svg id="checked" xmlns="http://www.w3.org/2000/svg" width="37.358" height="35.877" viewBox="0 0 37.358 35.877">
  <path id="Ellipse_34" data-name="Ellipse 34" d="M17.938,0A17.938,17.938,0,1,1,0,17.938,17.938,17.938,0,0,1,17.938,0Z" fill="#70cfa7"/>
  <path id="Path_340" data-name="Path 340" d="M535.071,126.62l8.442,6.486h-3.264l22.145-20.175a.946.946,0,0,1,1.266,1.407h0L543.47,136.468l-.113.127a2.026,2.026,0,0,1-2.814.2h0a2.182,2.182,0,0,1-.239-.267l-6.458-8.442a.915.915,0,0,1,.225-1.266.929.929,0,0,1,1.041,0Z" transform="translate(-526.615 -110.609)" fill="#fff"/>
</svg>
